<svg xmlns="http://www.w3.org/2000/svg" version="1.1" xmlns:xlink="http://www.w3.org/1999/xlink" xmlns:svgjs="http://svgjs.dev/svgjs" width="1000" height="411" viewBox="0 0 1000 411"><g transform="matrix(1,0,0,1,-0.6060606060606233,-0.5099040774480272)"><svg viewBox="0 0 396 163" data-background-color="#ffffff" preserveAspectRatio="xMidYMid meet" height="411" width="1000" xmlns="http://www.w3.org/2000/svg" xmlns:xlink="http://www.w3.org/1999/xlink"><g id="tight-bounds" transform="matrix(1,0,0,1,0.2400000000000091,0.2022247314453267)"><svg viewBox="0 0 395.52 162.59554319575986" height="162.59554319575986" width="395.52"><rect width="395.5199890136719" height="162.59555053710938" fill="url(#963b303b-cb2f-4e4e-a49d-7e3060536949)" mask="url(&quot;#a864b551-b117-49b0-a0f1-25ffc846b9e3&quot;)" data-fill-palette-color="accent"></rect><rect width="395.5199890136719" height="162.59555053710938" fill="url(#f939bab4-d11f-4912-9ac5-ab70bebacd7a)" mask="url(&quot;#2348c1df-3857-4bb2-9661-c642e74ee2bc&quot;)" data-fill-palette-color="primary"></rect><g><svg viewBox="0 0 603.8922051219965 248.25591910269077" height="162.59554319575986" width="395.52"><g></g><g transform="matrix(1,0,0,1,208.37220512199647,41.37598651711512)"><svg viewBox="0 0 395.52 165.50394606846052" height="165.50394606846052" width="395.52"><g id="textblocktransform"><svg viewBox="0 0 395.52 165.50394606846052" height="165.50394606846052" width="395.52" id="textblock"><g><svg viewBox="0 0 395.52 165.50394606846052" height="165.50394606846052" width="395.52"><g transform="matrix(1,0,0,1,0,0)"><svg width="395.52" viewBox="1.045794129371643 -35.45000076293945 186.16481018066406 74.69999694824219" height="165.50394606846052" data-palette-color="url(#f939bab4-d11f-4912-9ac5-ab70bebacd7a)"><svg></svg><svg></svg><g class="undefined-text-0" data-fill-palette-color="primary" id="text-0"></g></svg></g></svg></g></svg></g></svg></g><g><svg viewBox="0 0 165.42218365815728 248.25591910269077" height="248.25591910269077" width="165.42218365815728"><g><svg xmlns="http://www.w3.org/2000/svg" xmlns:xlink="http://www.w3.org/1999/xlink" version="1.1" x="0" y="0" viewBox="18.600000381469727 5.805886745452881 59.5 89.29411315917969" enable-background="new 0 0 100 100" xml:space="preserve" height="248.25591910269077" width="165.42218365815728" class="icon-icon-0" data-fill-palette-color="accent" id="icon-0"></svg></g></svg></g></svg></g><defs><linearGradient x1="0.054" x2="0.941" y1="0.5" y2="0.5" id="f939bab4-d11f-4912-9ac5-ab70bebacd7a"><stop stop-color="#9c7945" offset="0"></stop><stop stop-color="#faf3aa" offset="0.498"></stop><stop stop-color="#9c7945" offset="1"></stop></linearGradient><linearGradient x1="0.054" x2="0.941" y1="0.5" y2="0.5" id="963b303b-cb2f-4e4e-a49d-7e3060536949"><stop stop-color="#9c7945" offset="0"></stop><stop stop-color="#faf3aa" offset="0.498"></stop><stop stop-color="#9c7945" offset="1"></stop></linearGradient></defs><mask id="2348c1df-3857-4bb2-9661-c642e74ee2bc"><g id="SvgjsG1638"><svg viewBox="0 0 395.52 162.59554319575986" height="162.59554319575986" width="395.52"><g><svg viewBox="0 0 603.8922051219965 248.25591910269077" height="162.59554319575986" width="395.52"><g><rect width="6.887870780514938" height="166.3314657988028" x="183.4532589998194" y="40.96222665194398" fill="white" opacity="1" stroke-width="0" stroke="transparent" fill-opacity="1" class="rect-o-0" rx="1%" id="SvgjsRect1637" data-palette-color="url(#f939bab4-d11f-4912-9ac5-ab70bebacd7a)"></rect></g><g transform="matrix(1,0,0,1,208.37220512199647,41.37598651711512)"><svg viewBox="0 0 395.52 165.50394606846052" height="165.50394606846052" width="395.52"><g id="SvgjsG1636"><svg viewBox="0 0 395.52 165.50394606846052" height="165.50394606846052" width="395.52" id="SvgjsSvg1635"><g><svg viewBox="0 0 395.52 165.50394606846052" height="165.50394606846052" width="395.52"><g transform="matrix(1,0,0,1,0,0)"><svg width="395.52" viewBox="1.045794129371643 -35.45000076293945 186.16481018066406 74.69999694824219" height="165.50394606846052" data-palette-color="url(#f939bab4-d11f-4912-9ac5-ab70bebacd7a)"><svg></svg><svg></svg><g class="undefined-text-0" data-fill-palette-color="primary" id="SvgjsG1634"><path xmlns="http://www.w3.org/2000/svg" d="M37.5 0.05v0c-2.967 0-4.45-0.333-4.45-1v0l-1.05-20.05-6.1 20.3c-0.133 0.4-1.267 0.6-3.4 0.6-2.133 0-3.233-0.183-3.3-0.55v0l-6.3-20.55-0.7 19.95c-0.033 0.5-0.667 0.84-1.9 1.02-1.233 0.187-2.257 0.28-3.07 0.28-0.82 0-1.613-0.05-2.38-0.15v0c-1.6-0.233-2.383-0.65-2.35-1.25v0l1.15-32.5c0-0.8 2.033-1.2 6.1-1.2v0c1.2 0 2.667 0.093 4.4 0.28 1.733 0.18 2.7 0.537 2.9 1.07v0l5.6 15.75 4.9-15.8c0.3-0.867 2.6-1.3 6.9-1.3v0c1.233 0 2.71 0.093 4.43 0.28 1.713 0.18 2.57 0.503 2.57 0.97v0l1.45 32.8c0 0.367-0.65 0.633-1.95 0.8-1.3 0.167-2.45 0.25-3.45 0.25zM71.35 0.1v0c-2.9 0-4.467-0.467-4.7-1.4v0l-1.65-6.45h-7.95l-1.45 6.2c-0.2 1.033-1.8 1.55-4.8 1.55v0c-1.6 0-2.783-0.093-3.55-0.28-0.767-0.18-1.15-0.32-1.15-0.42v0l8.85-33.85c0-0.267 2.283-0.4 6.85-0.4 4.567 0 6.85 0.133 6.85 0.4v0l8.65 33.9c0 0.233-0.767 0.417-2.3 0.55-1.533 0.133-2.75 0.2-3.65 0.2zM61-24.45l-2.7 10.35h5.25l-2.25-10.35zM80.1-2.95v0-31.1c0-0.7 1.69-1.05 5.07-1.05 3.387 0 5.08 0.35 5.08 1.05v0 24.5h7.7c0.6 0 1.017 0.783 1.25 2.35v0c0.1 0.767 0.15 1.55 0.15 2.35 0 0.8-0.05 1.617-0.15 2.45v0c-0.267 1.6-0.7 2.4-1.3 2.4v0h-15.4c-0.733 0-1.317-0.3-1.75-0.9-0.433-0.6-0.65-1.283-0.65-2.05zM115.65-25.9v25.1c0 0.667-1.65 1-4.95 1-3.3 0-4.95-0.333-4.95-1v0-25.1h-6c-0.567 0-0.967-0.767-1.2-2.3v0c-0.1-0.733-0.15-1.483-0.15-2.25 0-0.767 0.05-1.517 0.15-2.25v0c0.233-1.533 0.633-2.3 1.2-2.3v0h21.75c0.567 0 0.967 0.767 1.2 2.3v0c0.1 0.733 0.15 1.483 0.15 2.25 0 0.767-0.05 1.517-0.15 2.25v0c-0.233 1.533-0.633 2.3-1.2 2.3v0zM135.5-21.1h6.45c0.633 0 0.95 1.167 0.95 3.5v0c0 0.7-0.077 1.523-0.23 2.47-0.147 0.953-0.42 1.43-0.82 1.43v0h-6.35v5h9.2c0.567 0 0.95 0.733 1.15 2.2v0c0.1 0.633 0.15 1.307 0.15 2.02 0 0.72-0.1 1.647-0.3 2.78-0.2 1.133-0.533 1.7-1 1.7v0h-17.1c-1.267 0-1.9-0.517-1.9-1.55v0-32.15c0-0.867 0.383-1.3 1.15-1.3v0h17.9c0.7 0 1.05 1.473 1.05 4.42 0 2.953-0.35 4.43-1.05 4.43v0h-9.25zM165.22 0.5c-4.68 0-8.493-1.533-11.44-4.6-2.953-3.067-4.43-7.543-4.43-13.43 0-5.88 1.49-10.337 4.47-13.37 2.987-3.033 6.84-4.55 11.56-4.55 4.713 0 8.52 1.49 11.42 4.47 2.9 2.987 4.35 7.503 4.35 13.55 0 6.053-1.483 10.553-4.45 13.5-2.967 2.953-6.793 4.43-11.48 4.43zM165.25-25.85c-1.6 0-2.943 0.733-4.03 2.2-1.08 1.467-1.62 3.523-1.62 6.17 0 2.653 0.517 4.687 1.55 6.1 1.033 1.42 2.39 2.13 4.07 2.13 1.687 0 3.053-0.717 4.1-2.15 1.053-1.433 1.58-3.483 1.58-6.15 0-2.667-0.54-4.717-1.62-6.15-1.087-1.433-2.43-2.15-4.03-2.15z" fill="white" fill-rule="nonzero" stroke="none" stroke-width="1" stroke-linecap="butt" stroke-linejoin="miter" stroke-miterlimit="10" stroke-dasharray="" stroke-dashoffset="0" font-family="none" font-weight="none" font-size="none" text-anchor="none" style="mix-blend-mode: normal" opacity="1"></path><path xmlns="http://www.w3.org/2000/svg" d="M6.2 37.7l-5.15-33.25c-0.1-0.367 1.583-0.55 5.05-0.55v0c3.833 0 5.8 0.317 5.9 0.95v0l2.45 21.05 5.3-21.3c0.167-0.5 1.467-0.75 3.9-0.75 2.433 0 3.733 0.233 3.9 0.7v0l5.2 21.45 2.9-21.25c0.067-0.367 0.833-0.617 2.3-0.75 1.467-0.133 2.65-0.2 3.55-0.2v0c3.5 0 5.2 0.233 5.1 0.7v0l-6.05 33.15c-0.133 0.5-1.083 0.867-2.85 1.1-1.767 0.233-3.2 0.35-4.3 0.35v0c-4.133 0-6.3-0.467-6.5-1.4v0l-3.4-13.75-3.7 13.7c-0.133 0.6-1.3 1.033-3.5 1.3v0c-1.133 0.1-2.267 0.15-3.4 0.15v0l-3.2-0.15c-2.2-0.233-3.367-0.65-3.5-1.25zM50 30.35h3.45v-17.8h-3.55c-0.567 0-0.967-0.717-1.2-2.15v0c-0.1-0.7-0.15-1.417-0.15-2.15 0-0.733 0.05-1.45 0.15-2.15v0c0.233-1.433 0.633-2.15 1.2-2.15v0h16.8c0.567 0 0.95 0.717 1.15 2.15v0c0.133 0.7 0.2 1.417 0.2 2.15 0 0.733-0.067 1.45-0.2 2.15v0c-0.2 1.433-0.583 2.15-1.15 2.15v0h-3.35v17.8h3.5c0.567 0 0.967 0.717 1.2 2.15v0c0.133 0.7 0.2 1.417 0.2 2.15 0 0.733-0.067 1.45-0.2 2.15v0c-0.233 1.433-0.633 2.15-1.2 2.15v0h-16.85c-0.567 0-0.95-0.717-1.15-2.15v0c-0.133-0.7-0.2-1.417-0.2-2.15 0-0.733 0.067-1.45 0.2-2.15v0c0.2-1.433 0.583-2.15 1.15-2.15zM99 4.9v32.95c0 0.7-1.567 1.05-4.7 1.05-3.133 0-4.833-0.25-5.1-0.75v0l-8.35-15.6v15.55c0 0.6-1.54 0.9-4.62 0.9-3.087 0-4.63-0.3-4.63-0.9v0-33.45c0-0.5 1.317-0.75 3.95-0.75v0c1.033 0 2.243 0.093 3.63 0.28 1.38 0.18 2.22 0.52 2.52 1.02v0l8 15.4v-15.7c0-0.633 1.55-0.95 4.65-0.95 3.1 0 4.65 0.317 4.65 0.95zM113.8 17.85h6.45c0.633 0 0.95 1.167 0.95 3.5v0c0 0.7-0.077 1.523-0.23 2.47-0.147 0.953-0.42 1.43-0.82 1.43v0h-6.35v5h9.2c0.567 0 0.95 0.733 1.15 2.2v0c0.1 0.633 0.15 1.307 0.15 2.02 0 0.72-0.1 1.647-0.3 2.78-0.2 1.133-0.533 1.7-1 1.7v0h-17.1c-1.267 0-1.9-0.517-1.9-1.55v0-32.15c0-0.867 0.383-1.3 1.15-1.3v0h17.9c0.7 0 1.05 1.473 1.05 4.42 0 2.953-0.35 4.43-1.05 4.43v0h-9.25zM138.2 26.9v11.35c0 0.533-1.583 0.8-4.75 0.8v0c-3.2 0-4.8-0.25-4.8-0.75v0-32.6c0-1.167 0.617-1.75 1.85-1.75v0h9.55c8.767 0 13.15 3.417 13.15 10.25v0c0 2.067-0.4 3.94-1.2 5.62-0.8 1.687-1.933 3.03-3.4 4.03v0l6.3 10.5c-0.267 0.8-1.133 1.717-2.6 2.75v0c-2 1.433-3.65 2.15-4.95 2.15-1.3 0-2.267-0.467-2.9-1.4v0l-4.7-10.95zM139.25 12.8h-1.05v7.5h0.25c3.167 0 4.75-1.317 4.75-3.95v0c0-1.2-0.307-2.093-0.92-2.68-0.62-0.58-1.63-0.87-3.03-0.87zM171.35 15.8l4.2-10.2c0.433-1.167 2.567-1.75 6.4-1.75v0c0.967 0 2.11 0.067 3.43 0.2 1.313 0.133 1.92 0.3 1.82 0.5v0l-10.4 20.9v12.2c0 0.567-0.917 0.967-2.75 1.2v0c-0.933 0.133-1.85 0.2-2.75 0.2-0.9 0-1.8-0.05-2.7-0.15v0c-1.833-0.233-2.75-0.65-2.75-1.25v0-11.9l-10.75-21.1c-0.133-0.2 0.55-0.393 2.05-0.58 1.5-0.18 2.767-0.27 3.8-0.27v0c4.1 0 6.35 0.6 6.75 1.8v0z" fill="white" fill-rule="nonzero" stroke="none" stroke-width="1" stroke-linecap="butt" stroke-linejoin="miter" stroke-miterlimit="10" stroke-dasharray="" stroke-dashoffset="0" font-family="none" font-weight="none" font-size="none" text-anchor="none" style="mix-blend-mode: normal" opacity="1"></path></g></svg></g></svg></g></svg></g></svg></g><g><svg viewBox="0 0 165.42218365815728 248.25591910269077" height="248.25591910269077" width="165.42218365815728"><g><svg xmlns="http://www.w3.org/2000/svg" xmlns:xlink="http://www.w3.org/1999/xlink" version="1.1" x="0" y="0" viewBox="18.600000381469727 5.805886745452881 59.5 89.29411315917969" enable-background="new 0 0 100 100" xml:space="preserve" height="248.25591910269077" width="165.42218365815728" class="icon-icon-0" data-fill-palette-color="accent" id="SvgjsSvg1633"></svg></g></svg></g></svg></g><defs><mask></mask></defs></svg></g></mask><mask id="a864b551-b117-49b0-a0f1-25ffc846b9e3"><g id="SvgjsG1651"><svg viewBox="0 0 395.52 162.59554319575986" height="162.59554319575986" width="395.52"><g><svg viewBox="0 0 603.8922051219965 248.25591910269077" height="162.59554319575986" width="395.52"><g></g><g transform="matrix(1,0,0,1,208.37220512199647,41.37598651711512)"><svg viewBox="0 0 395.52 165.50394606846052" height="165.50394606846052" width="395.52"><g id="SvgjsG1650"><svg viewBox="0 0 395.52 165.50394606846052" height="165.50394606846052" width="395.52" id="SvgjsSvg1649"><g><svg viewBox="0 0 395.52 165.50394606846052" height="165.50394606846052" width="395.52"><g transform="matrix(1,0,0,1,0,0)"><svg width="395.52" viewBox="1.045794129371643 -35.45000076293945 186.16481018066406 74.69999694824219" height="165.50394606846052" data-palette-color="url(#f939bab4-d11f-4912-9ac5-ab70bebacd7a)"><svg></svg><svg></svg><g class="undefined-text-0" data-fill-palette-color="primary" id="SvgjsG1648"></g></svg></g></svg></g></svg></g></svg></g><g><svg viewBox="0 0 165.42218365815728 248.25591910269077" height="248.25591910269077" width="165.42218365815728"><g><svg xmlns="http://www.w3.org/2000/svg" xmlns:xlink="http://www.w3.org/1999/xlink" version="1.1" x="0" y="0" viewBox="18.600000381469727 5.805886745452881 59.5 89.29411315917969" enable-background="new 0 0 100 100" xml:space="preserve" height="248.25591910269077" width="165.42218365815728" class="icon-icon-0" data-fill-palette-color="accent" id="SvgjsSvg1647"><g fill="white"><path d="M77.4 78c-0.6-0.7-2.4-0.9-3.9-0.7-0.7 0.1-11.2 3.2-11.2 3.2 0.3 0.9 0.8 2.6-1 4.4-1.2 1.1-3.1 1.4-5.5 1.3-2.4 0-5-0.4-7.1-0.7-0.7-0.1-2.5-0.3-2.5-0.3s1.3-0.6 3-0.6c2.2-0.1 3.9-0.1 4.9 0 1.1 0.1 2.6 0.2 3.3 0.2 3 0.1 3.7-1.8 3.7-2.5 0-2.1-1.2-2.8-4.9-3.2-2.4-0.2-5-0.4-6.8-0.6-3.5-0.4-6-1.4-7.2-1.5-0.9-0.1-3.1-0.5-5.3 1.3C30.4 83.6 18.6 87 18.6 87c1.8 5.9 11.6 8.1 11.6 8.1 4.2-3.8 8.8-4.2 12.8-4.4 0.7 0 7.3 0 13.4 0.7 1.2 0.1 2.3-0.6 2.3-0.6 9.2-5.9 17-9.1 17-9.1 1.9-0.7 2.4-1.5 2.4-2.2C78.1 78.4 77.4 78 77.4 78z" fill="white"></path><path d="M74.6 38.2c-0.1 0-0.2 0-0.3 0 0.7-0.5 1.3-1.3 1.4-2.3 0.3-1.5-0.5-3-1.8-3.7 0-0.1 0-0.1 0.1-0.2 0.3-1.9-1-3.7-2.9-4.1-1.9-0.3-3.7 1-4.1 2.9 0.3-1.9-1-3.7-2.9-4.1-1.7-0.3-3.4 0.7-3.9 2.3-0.3-1.3-1.4-2.4-2.8-2.6-0.3-0.1-0.6-0.1-0.9 0 1-1.7 1.9-4.8-1.8-5.7-0.7-0.1-1.3 0-1.9 0.3-1.6-2.2-2.9-4.4-2.8-6.9 0.4 0.1 0.8 0.1 1.2 0.2 0.2 0 0.4 0 0.5 0 0.1 0.8 0.2 1.5 0.4 2.3 0.2 0.9 0.6 1.8 1.1 2.6 0.5 0.8 1.3 1.5 2.4 1.8 0.9 0.2 1.8 0 2.6-0.4 0.4 0.4 0.9 0.7 1.4 0.9 0.9 0.4 1.9 0.6 2.8 0.7 1 0.1 1.9-0.1 2.8-0.3-0.9 0.1-1.9 0.2-2.8 0-0.9-0.1-1.8-0.4-2.6-0.8-0.4-0.2-0.8-0.5-1.1-0.8 0.7-0.5 1.3-1 1.9-1.6l0 0c0 0 0.1-0.1 0.1-0.1 0.1-0.3 0.2-0.5 0.3-0.8 0-0.3 0-0.6-0.1-0.9-0.2-0.6-0.7-1-1.2-1.2-0.5-0.2-1.1-0.3-1.7-0.2-0.3 0.1-0.6 0.2-0.8 0.4-0.2 0.2-0.4 0.5-0.5 0.8l0 0c0 0 0 0 0 0.1 0 0.5 0 1 0.1 1.5 0.1 0.5 0.3 1 0.6 1.4 0 0.1 0.1 0.1 0.1 0.2-0.5 0.2-1.1 0.3-1.6 0.2-0.7-0.2-1.3-0.7-1.7-1.3-0.4-0.7-0.8-1.4-1-2.2-0.2-0.6-0.3-1.3-0.3-2 0.7 0 1.4-0.1 2.1-0.2 0.6-0.1 1.2-0.3 1.8-0.8 0.3-0.2 0.6-0.6 0.6-1.1 0-0.5-0.2-0.8-0.4-1.1 0 0 0 0 0 0l0 0c-0.3-0.3-0.6-0.7-1-1-0.4-0.3-0.8-0.6-1.3-0.7-0.5-0.2-1.2-0.1-1.7 0.3-0.5 0.4-0.7 0.9-0.9 1.3-0.3 0.9-0.4 1.7-0.4 2.6-0.2 0-0.3 0-0.5 0-0.4 0-0.8 0-1.2-0.1 0-0.2 0.1-0.5 0.1-0.7 1.1-2.1 1.4-4.5 0.6-7-0.3-0.8-2.3 0.2-2 1 0.5 1.4 0.5 2.8 0.2 4.1-0.3 0.6-0.6 1.3-0.7 1.9 0 0.1-0.1 0.1-0.1 0.2-0.2 0-0.3-0.1-0.5-0.1-1.1-0.3-2.3-0.8-3.2-1.6 0.8 0.9 1.9 1.5 3.1 1.9 0.1 0 0.3 0.1 0.4 0.1-1.4 2.4-3.8 4.6-6.2 6.3-0.5-1-1.4-1.7-2.5-1.9-1.9-0.3-3.7 0.9-4 2.8-0.2 0.9 0.1 1.8 0.6 2.5 0 0 0 0 0 0-0.2 0-0.4 0-0.6 0-0.5-1-1.4-1.7-2.5-1.9-1.9-0.3-3.7 0.9-4 2.8-0.2 1.3 0.3 2.5 1.2 3.3-1.1 0.4-2 1.4-2.2 2.7-0.3 1.9 0.9 3.7 2.8 4 0.1 0 0.3 0 0.4 0 0.4 1.2 1.4 2.1 2.7 2.3 0.5 0.1 1 0.1 1.5-0.1 0 0.3 0 0.6 0 0.9-0.3-0.1-0.6-0.3-1-0.3-0.8-0.1-1.5 0-2.2 0.3-0.4-1.1-1.4-2-2.7-2.2-1.9-0.3-3.7 0.9-4 2.8-0.3 1.9 0.9 3.7 2.8 4 0.8 0.1 1.5 0 2.2-0.3 0.4 1.1 1.4 2 2.7 2.2 1.9 0.3 3.7-0.9 4-2.8 0.1-0.4 0.1-0.8 0-1.2 0.3 0.1 0.6 0.3 1 0.3 1.5 0.3 2.9-0.5 3.6-1.7 0.1 0.2 0.3 0.3 0.5 0.5-2.5 5 2.2 5.8 2.7 6-0.8 0.6-1.3 1.5-1.5 2.5-0.4 2.2 1.1 4.3 3.3 4.7 0 0 0 0 0.1 0 0 1 0.5 2 1.3 2.5-0.8 0.4-1.4 1.2-1.6 2.2-0.2 1 0.2 1.9 0.8 2.6-1.3 0.2-2.4 1.2-2.6 2.6-0.3 1.7 0.9 3.4 2.6 3.6 1.1 0.2 2.2-0.2 2.9-1 0.5 0.6 1.2 1 2 1.2 0.7 0.1 1.3 0 1.9-0.2-0.6 0.5-1 1.1-1.1 1.9-0.2 1 0.1 1.9 0.7 2.6-0.8 0.5-1.4 1.2-1.5 2.2-0.3 1.7 0.9 3.4 2.6 3.6 1.7 0.3 3.4-0.9 3.6-2.6 0.2-1-0.1-1.9-0.7-2.6 0.8-0.5 1.4-1.2 1.5-2.2 0-0.2 0-0.4 0-0.5 0.1 0 0.3 0.1 0.4 0.1 0.4 0.1 0.7 0 1.1 0-0.5 0.5-0.9 1.1-1 1.8-0.3 1.7 0.9 3.4 2.6 3.6 1.7 0.3 3.4-0.9 3.6-2.6 0.3-1.7-0.9-3.4-2.6-3.6-0.3 0-0.6 0-0.8 0 0.2-0.1 0.3-0.3 0.5-0.5 0.4 0.3 0.9 0.6 1.5 0.7 1.7 0.3 3.4-0.9 3.6-2.6 0.2-1.2-0.3-2.4-1.3-3.1 1.1-0.3 2-1.3 2.2-2.5 0.3-1.5-0.6-3-2-3.5 0.5-0.5 0.9-1.1 1-1.8 0.1-0.4 0.1-0.8 0-1.2 0.2 0.1 0.4 0.1 0.6 0.2 1.9 0.3 3.7-0.9 4-2.8 1.6 0.1 3-1 3.3-2.6 0.2-1.3-0.4-2.5-1.4-3.2 1.4-0.1 2.5-1.2 2.8-2.6C77.5 40.1 76.3 38.5 74.6 38.2zM57.5 16.8c0.1-0.3 0.4-0.5 0.7-0.6 0.3-0.1 0.8 0 1.1 0.2 0.3 0.2 0.6 0.4 0.7 0.7 0.1 0.3 0.1 0.6-0.1 0.9-0.6 0.6-1.2 1.1-1.8 1.4 0-0.1-0.1-0.1-0.1-0.2C57.6 18.5 57.4 17.6 57.5 16.8zM53.1 11.5c0.1-0.4 0.3-0.7 0.5-0.9 0.2-0.2 0.5-0.2 0.8-0.2 0.3 0.1 0.7 0.3 1 0.5 0.3 0.2 0.6 0.5 0.9 0.8 0.1 0.2 0.2 0.4 0.2 0.5 0 0.2-0.1 0.3-0.3 0.5-0.4 0.3-0.9 0.5-1.5 0.7-0.6 0.2-1.3 0.2-2 0.3C52.8 13 52.8 12.2 53.1 11.5zM60.1 31.1c0.1 0.6 0.4 1.1 0.8 1.5-0.4-0.2-0.8-0.4-1.3-0.5 0 0 0 0-0.1 0C59.8 31.8 60 31.5 60.1 31.1zM46.2 32c-0.1 0.5-0.1 1 0 1.5-0.4-0.3-0.9-0.6-1.5-0.7-1.5-0.3-2.9 0.5-3.6 1.7-0.5-0.6-1.2-1-2-1.2-0.5-0.1-1-0.1-1.5 0.1 0.1-1.3-0.5-2.5-1.5-3.1 0.2 0 0.3-0.1 0.5-0.2 0.4 1.4 1.6 2.5 3.2 2.8 2.2 0.4 4.3-1.1 4.7-3.3 0.4-2.2-1.1-4.3-3.3-4.7-1-0.2-2 0.1-2.8 0.5-0.1-0.2-0.2-0.3-0.3-0.4 0 0 0 0 0 0 1.9 0.3 3.7-0.9 4-2.8 0-0.2 0-0.4 0-0.6 2-1.5 4.2-3.4 5.9-5.3 0.2 2.4 1.6 4.6 3.2 6.7-0.1 0.2-0.1 0.3-0.1 0.5-0.1 0.7 0 1.3 0.3 1.9-0.2 0.1-0.4 0.2-0.6 0.3 0 0 0 0 0 0 0.3-1.9-0.9-3.7-2.8-4-1.9-0.3-3.7 0.9-4 2.8-0.3 1.9 0.9 3.7 2.8 4 0.9 0.1 1.7 0 2.4-0.5-0.1 0.4 0 0.8 0 1.1C47.7 29.2 46.5 30.4 46.2 32zM48.7 37.6c0 0.1 0.1 0.2 0.1 0.3-0.1-0.1-0.2-0.1-0.2-0.2C48.6 37.7 48.6 37.7 48.7 37.6zM49.6 44.7c-0.3-0.2-0.6-0.4-0.9-0.5 0.8-0.6 1.3-1.5 1.5-2.5 0.1-0.8 0-1.5-0.2-2.2 0.4 0.3 0.9 0.6 1.5 0.7 1.9 0.3 3.7-1 4.1-2.9 0.3-1.6-0.6-3.1-2-3.8 0-0.1 0.1-0.2 0.1-0.4 0.1-0.6 0-1.2-0.2-1.8 0.1 0 0.1 0 0.2-0.1 0.5 1 1.4 1.8 2.6 2 0 0 0 0 0.1 0-0.3 0.4-0.6 1-0.7 1.5-0.2 1.4 0.4 2.7 1.5 3.5-1.8-0.1-3.4 1.1-3.7 2.9-0.1 0.7 0 1.5 0.3 2.1-0.2-0.1-0.4-0.1-0.6-0.2C51.7 43 50.4 43.6 49.6 44.7zM53.6 59C53.6 59 53.6 59 53.6 59c-0.1 0-0.2 0-0.4-0.1-0.3-0.1-0.7 0-1 0 0.2-0.3 0.3-0.6 0.4-1 0.2-1.2-0.3-2.4-1.3-3.1 0.5-0.3 1-0.7 1.3-1.3 0.2 1.5 1.3 2.8 2.9 3.1 0 0 0 0 0 0C54.5 57 53.8 57.8 53.6 59zM56.6 64.1c-0.1 0.3-0.1 0.6 0 0.9 0 0-0.1 0-0.1 0-0.6-0.1-1.2 0-1.7 0.2 0.6-0.5 1.1-1.3 1.3-2.1 0-0.1 0-0.2 0-0.4 0 0 0 0 0 0 0.4 0.1 0.8 0 1.1 0C57 63 56.7 63.5 56.6 64.1zM62.6 62.2c-0.5-0.5-1.1-0.9-1.9-1-0.5-0.1-0.9-0.1-1.4 0 0.2-0.3 0.3-0.6 0.4-0.9 0.5 0.4 1 0.7 1.7 0.8 0.7 0.1 1.4 0 2-0.2 0.2 0.2 0.3 0.4 0.5 0.5C63.4 61.6 63 61.8 62.6 62.2zM69.7 46.1C69.7 46.1 69.7 46.1 69.7 46.1c-2-0.3-3.8 0.9-4.1 2.9-0.1 0.5 0 1.1 0.1 1.6-0.1 0-0.2-0.1-0.4-0.1-0.6-0.1-1.1 0-1.6 0.2 0.7-0.5 1.2-1.3 1.4-2.2 0.3-1.9-1-3.7-2.9-4.1-1.9-0.3-3.7 1-4.1 2.9-0.3 1.9 1 3.7 2.9 4.1 0.6 0.1 1.3 0 1.8-0.2-0.6 0.5-1.1 1.2-1.2 2-0.1 0.4-0.1 0.8 0 1.2-1.5 0.1-2.8 1.2-3.2 2.8-0.4-0.3-0.8-0.5-1.3-0.6 1.1-0.4 2-1.4 2.2-2.7 0.3-1.9-1-3.7-2.9-4.1-1.6-0.3-3.1 0.6-3.8 2-0.1-0.5-0.2-1-0.5-1.4 1.7 0.1 3.3-1.2 3.6-2.9 0.1-0.7 0-1.5-0.3-2.1 0.2 0.1 0.4 0.1 0.6 0.2 1.9 0.3 3.7-1 4.1-2.9 0.2-1.4-0.4-2.7-1.5-3.5 1.8 0.1 3.4-1.1 3.7-2.9 0.2-1.1-0.2-2.2-0.9-2.9 0.4 0.2 0.8 0.4 1.3 0.5-0.3 1.9 1 3.7 2.9 4.1 0.7 0.1 1.4 0 2-0.3-0.2 0.3-0.3 0.6-0.4 1-0.5-0.4-1-0.6-1.6-0.7-1.9-0.3-3.7 1-4.1 2.9-0.3 1.9 1 3.7 2.9 4.1 1.8 0.3 3.6-0.9 4-2.6 0.5 0.4 1 0.6 1.6 0.7 0.4 0.1 0.7 0 1.1 0 0.3 0.5 0.6 0.9 1.1 1.1C71.2 44.1 70.1 44.9 69.7 46.1z" fill="white"></path></g></svg></g></svg></g></svg></g><defs><linearGradient x1="0.054" x2="0.941" y1="0.5" y2="0.5" id="SvgjsLinearGradient1646"><stop stop-color="#9c7945" offset="0"></stop><stop stop-color="#faf3aa" offset="0.498"></stop><stop stop-color="#9c7945" offset="1"></stop></linearGradient><mask></mask></defs><mask id="SvgjsMask1645"><g id="SvgjsG1644"><svg viewBox="0 0 395.52 162.59554319575986" height="162.59554319575986" width="395.52"><g><svg viewBox="0 0 603.8922051219965 248.25591910269077" height="162.59554319575986" width="395.52"><g></g><g transform="matrix(1,0,0,1,208.37220512199647,41.37598651711512)"><svg viewBox="0 0 395.52 165.50394606846052" height="165.50394606846052" width="395.52"><g id="SvgjsG1642"><svg viewBox="0 0 395.52 165.50394606846052" height="165.50394606846052" width="395.52" id="SvgjsSvg1641"><g><svg viewBox="0 0 395.52 165.50394606846052" height="165.50394606846052" width="395.52"><g transform="matrix(1,0,0,1,0,0)"><svg width="395.52" viewBox="1.045794129371643 -35.45000076293945 186.16481018066406 74.69999694824219" height="165.50394606846052" data-palette-color="url(#f939bab4-d11f-4912-9ac5-ab70bebacd7a)"><svg></svg><svg></svg><g class="undefined-text-0" data-fill-palette-color="primary" id="SvgjsG1640"></g></svg></g></svg></g></svg></g></svg></g><g><svg viewBox="0 0 165.42218365815728 248.25591910269077" height="248.25591910269077" width="165.42218365815728"><g><svg xmlns="http://www.w3.org/2000/svg" xmlns:xlink="http://www.w3.org/1999/xlink" version="1.1" x="0" y="0" viewBox="18.600000381469727 5.805886745452881 59.5 89.29411315917969" enable-background="new 0 0 100 100" xml:space="preserve" height="248.25591910269077" width="165.42218365815728" class="icon-icon-0" data-fill-palette-color="accent" id="SvgjsSvg1639"></svg></g></svg></g></svg></g><defs><mask></mask></defs></svg></g></mask></svg></g></mask></svg><rect width="395.52" height="162.59554319575986" fill="none" stroke="none" visibility="hidden"></rect></g></svg></g></svg>